<svg xmlns="http://www.w3.org/2000/svg" viewBox="0 0 27.442 27.442">
  <path d="M19.494 0H7.948C6.843 0 5.951.896 5.951 1.999v23.446c0 1.102.892 1.997 1.997 1.997h11.546c1.103 0 1.997-.895 1.997-1.997V1.999C21.491.896 20.597 0 19.494 0zm-8.622 1.214h5.7c.144 0 .261.215.261.481s-.117.482-.261.482h-5.7c-.145 0-.26-.216-.26-.482s.115-.481.26-.481zm2.85 24.255c-.703 0-1.275-.572-1.275-1.276s.572-1.274 1.275-1.274c.701 0 1.273.57 1.273 1.274s-.572 1.276-1.273 1.276zm6.273-4.369H7.448V3.373h12.547V21.1z"/>
</svg>
