<svg xmlns="http://www.w3.org/2000/svg" viewBox="0 0 512.001 512.001" id="root"><path d="M406.296 90.17h-30.06c-8.306 0-15.03 6.722-15.03 15.03 0 8.307 6.723 15.03 15.03 15.03h30.06c8.307 0 15.03-6.722 15.03-15.03s-6.723-15.03-15.03-15.03zM254.416 38.36L239.386 8.3c-3.74-7.427-12.74-10.406-20.166-6.722-7.427 3.713-10.436 12.74-6.722 20.167l15.03 30.06c3.708 7.396 12.69 10.435 20.167 6.72 7.425-3.712 10.434-12.74 6.72-20.166zM352.9 1.578c-7.398-3.684-16.453-.704-20.167 6.722l-15.03 30.06c-3.713 7.426-.704 16.452 6.722 20.166 7.5 3.724 16.47.65 20.167-6.722l15.03-30.06c3.713-7.426.704-16.453-6.722-20.166zM195.882 90.17h-30.06c-8.306 0-15.03 6.722-15.03 15.03 0 8.307 6.723 15.03 15.03 15.03h30.06c8.307 0 15.03-6.722 15.03-15.03s-6.723-15.03-15.03-15.03zM105.705 241.468h-60.12c-8.3 0-15.03 6.73-15.03 15.03V496.97c0 8.3 6.73 15.03 15.03 15.03h60.12c8.3 0 15.03-6.73 15.03-15.03V256.497c0-8.3-6.73-15.03-15.03-15.03zM481.145 281.308c-2.65-23.315-24.43-39.84-47.895-39.84H316.075c9.958-17.83 15.303-68.264 15.066-88.866-.392-34.102-28.633-61.43-62.736-61.43h-12.402c-8.307 0-15.03 6.722-15.03 15.03 0 34.755-13.533 97.487-39.056 123.01-17.18 17.18-31.865 23.405-51.122 33.03v225.517C180.277 497.585 217.71 512 274.768 512h98.316C405.48 512 430.71 482 418.156 450.3c19.125-5.21 33.23-22.75 33.23-43.504 0-5.857-1.13-11.463-3.17-16.615 32.228-8.782 44.09-48.577 21.722-73.564 8.218-9.18 12.75-21.74 11.207-35.308z"/></svg>