<svg xmlns="http://www.w3.org/2000/svg" viewBox="0 0 291.319 291.319" id="root"><path d="M145.66 0c80.45 0 145.66 65.22 145.66 145.66s-65.21 145.66-145.66 145.66S0 226.1 0 145.66 65.21 0 145.66 0z" fill="#0E76A8"/><path d="M82.08 200.136h27.274v-90.91H82.08v90.91zm106.258-94.06c-13.237 0-25.08 4.835-33.483 15.505v-12.653H127.48v91.21h27.375v-49.324c0-10.424 9.55-20.593 21.512-20.593s14.912 10.17 14.912 20.338v49.57h27.274v-51.6c0-35.842-16.97-42.45-30.216-42.45zm-92.75-5.935c7.54 0 13.657-6.117 13.657-13.655S103.127 72.83 95.59 72.83s-13.657 6.118-13.657 13.656S88.05 100.14 95.59 100.14z"/></svg>