<svg xmlns="http://www.w3.org/2000/svg" viewBox="0 0 67 67" id="root"><path d="M4.25 35h39.9L33.86 45.478c-.78.78-.78 2.142 0 2.923.39.392.9.635 1.414.635.512 0 1.023-.17 1.414-.562l12.815-12.8c.375-.376.586-.88.586-1.41s-.212-1.035-.587-1.41l-.608-.607c-.138-.2-.312-.374-.513-.51L36.69 20.04c-.782-.78-2.05-.78-2.83 0-.78.78-.78 1.856 0 2.638L42.374 31H4.25c-1.104 0-2 .896-2 2s.896 2 2 2z"/><path d="M64.75 59.28V9.54c0-4.793-3.908-9.54-8.747-9.54h-26c-4.745 0-9.253 4.576-9.253 9.54v11.84c0 1.105.896 2 2 2s2-.895 2-2V9.54c0-2.748 2.72-5.54 5.252-5.54h26c2.648 0 4.748 2.937 4.748 5.54v49.74c0 2.664-2.203 3.72-4.747 3.72h-26c-2.366 0-5.253-.887-5.253-3.72v-11.9c0-1.103-.896-2-2-2s-2 .897-2 2v11.9c0 4.694 4.18 7.72 9.252 7.72h26c5.186 0 8.748-3.177 8.748-7.72z"/></svg>