<svg xmlns="http://www.w3.org/2000/svg" viewBox="0 0 112.197 112.197" id="root"><circle cx="56.099" cy="56.098" r="56.098" fill="#55ACEE"/><path d="M90.46 40.316c-2.403 1.066-4.99 1.787-7.7 2.11 2.768-1.66 4.893-4.285 5.896-7.418-2.59 1.537-5.462 2.652-8.515 3.253-2.445-2.604-5.93-4.232-9.79-4.232-7.403 0-13.408 6.005-13.408 13.41 0 1.05.12 2.073.35 3.055-11.145-.56-21.026-5.897-27.64-14.012-1.154 1.98-1.816 4.286-1.816 6.743 0 4.65 2.37 8.757 5.965 11.16-2.196-.068-4.265-.67-6.072-1.678v.17c0 6.497 4.623 11.916 10.756 13.147-1.124.308-2.31.47-3.532.47-.866 0-1.705-.082-2.523-.238 1.705 5.326 6.656 9.203 12.525 9.312-4.59 3.597-10.37 5.74-16.655 5.74-1.08 0-2.15-.063-3.197-.188 5.93 3.806 12.98 6.025 20.553 6.025 24.664 0 38.152-20.432 38.152-38.153 0-.58-.013-1.16-.04-1.734 2.623-1.89 4.896-4.25 6.693-6.94z"/></svg>