<svg style="position: absolute; width: 0; height: 0; overflow: hidden;" version="1.1" xmlns="http://www.w3.org/2000/svg" xmlns:xlink="http://www.w3.org/1999/xlink">
<defs>
<symbol id="icon-facebook" viewBox="0 0 32 32">
<path fill="#3b5998" style="fill: var(--color1, #3b5998)" d="M32 16c0 8.837-7.163 16-16 16s-16-7.163-16-16c0-8.837 7.163-16 16-16s16 7.163 16 16z"></path>
<path d="M20.022 16.626h-2.855v10.459h-4.325v-10.459h-2.057v-3.676h2.057v-2.379c0-1.701 0.808-4.365 4.364-4.365l3.204 0.013v3.568h-2.325c-0.382 0-0.918 0.191-0.918 1.002v2.163h3.233l-0.378 3.672z"></path>
</symbol>
<symbol id="icon-linkedin" viewBox="0 0 32 32">
<path fill="#0e76a8" style="fill: var(--color3, #0e76a8)" d="M16 0c8.837 0 16 7.164 16 16s-7.163 16-16 16-16-7.164-16-16 7.163-16 16-16z"></path>
<path d="M9.016 21.984h2.996v-9.986h-2.996v9.986zM20.688 11.652c-1.454 0-2.755 0.531-3.678 1.703v-1.39h-3.007v10.019h3.007v-5.418c0-1.145 1.049-2.262 2.363-2.262s1.638 1.117 1.638 2.234v5.445h2.996v-5.668c0-3.937-1.864-4.663-3.319-4.663zM10.5 11c0.828 0 1.5-0.672 1.5-1.5s-0.672-1.5-1.5-1.5-1.5 0.672-1.5 1.5 0.672 1.5 1.5 1.5z"></path>
</symbol>
<symbol id="icon-twitter" viewBox="0 0 32 32">
<path fill="#55acee" style="fill: var(--color4, #55acee)" d="M32 16c0 8.836-7.163 16-16 16s-16-7.163-16-16c0-8.836 7.163-16 16-16s16 7.163 16 16z"></path>
<path d="M25.8 11.499c-0.685 0.304-1.423 0.51-2.196 0.602 0.789-0.473 1.396-1.222 1.682-2.116-0.739 0.438-1.558 0.756-2.429 0.928-0.697-0.743-1.691-1.207-2.792-1.207-2.111 0-3.824 1.713-3.824 3.825 0 0.299 0.034 0.591 0.1 0.871-3.179-0.16-5.997-1.682-7.883-3.996-0.329 0.565-0.518 1.222-0.518 1.923 0 1.326 0.676 2.498 1.701 3.183-0.626-0.019-1.216-0.191-1.732-0.479v0.049c0 1.853 1.319 3.399 3.068 3.75-0.321 0.088-0.659 0.134-1.007 0.134-0.247 0-0.486-0.023-0.72-0.068 0.486 1.519 1.898 2.625 3.572 2.656-1.309 1.026-2.958 1.637-4.75 1.637-0.308 0-0.613-0.018-0.912-0.054 1.691 1.086 3.702 1.718 5.862 1.718 7.034 0 10.881-5.827 10.881-10.882 0-0.165-0.004-0.331-0.011-0.495 0.748-0.539 1.396-1.212 1.909-1.979z"></path>
</symbol>
</defs>
</svg>
