<svg xmlns="http://www.w3.org/2000/svg" viewBox="0 0 288.861 288.861">
  <path d="M167.172 288.861h-62.16V159.347H70.769v-59.48h34.242v-33.4C105.011 35.804 124.195 0 178.284 0c19.068 0 33.066 1.787 33.651 1.864l5.739.746-1.382 55.663-6.324-.058c-.013 0-14.223-.135-29.724-.135-11.536 0-13.066 2.847-13.066 14.171V99.88h50.913l-2.821 59.48h-48.086v129.501h-.012zm-49.314-12.854h36.453V146.5h48.677l1.607-33.779h-50.284V72.238c0-13.368 3.078-27.025 25.919-27.025 9.178 0 17.899.045 23.509.09l.778-31.292c-5.675-.508-15.116-1.157-26.247-1.157-44.544 0-60.419 27.693-60.419 53.613v46.254H83.61V146.5h34.242v129.507h.006z"/>
</svg>
