<svg xmlns="http://www.w3.org/2000/svg" viewBox="0 0 288.693 288.693">
  <path d="M74.609 288.359H4.544V91.698h70.065v196.661zm-57.212-12.853h44.358V104.552H17.397v170.954zM39.589 79.423C17.764 79.423 0 61.678 0 39.872S17.764.334 39.589.334c21.819 0 39.564 17.738 39.564 39.538 0 21.813-17.745 39.551-39.564 39.551zm0-66.235c-14.743 0-26.736 11.973-26.736 26.684 0 14.724 11.992 26.697 26.736 26.697 14.73 0 26.71-11.98 26.71-26.697 0-14.711-11.979-26.684-26.71-26.684zm249.104 275.171h-69.969v-95.798c0-28.67-3.483-42.314-23.297-42.314-20.045 0-27.854 11.427-27.854 40.759v97.354H97.63V91.698h67.642v13.914c10.771-10.148 27.096-18.477 48.439-18.477 66.068 0 74.975 47.514 74.975 93.992v107.232h.007zm-57.115-12.853h44.262v-94.378c0-50.091-10.392-81.139-62.122-81.139-25.515 0-42.019 14.145-48.4 26.254l-1.806 3.432h-11.086v-25.116H110.49v170.954h44.236v-84.506c0-14.66 0-53.613 40.708-53.613 36.151 0 36.151 35.887 36.151 55.168v82.945h-.007z"/>
</svg>
